<?xml version="1.0"?>
<svg xmlns="http://www.w3.org/2000/svg" xmlns:xlink="http://www.w3.org/1999/xlink" version="1.1" id="Capa_1" x="0px" y="0px" viewBox="0 0 511.999 511.999" style="enable-background:new 0 0 511.999 511.999;" xml:space="preserve" width="512px" height="512px" class=""><g><g>
	<g>
		<path d="M491.682,86.01H133.417c-6.373,0-12.373,2.987-16.213,8.066L4.103,243.748c-5.459,7.226-5.472,17.202-0.034,24.449    l112.423,149.679c3.84,5.106,9.861,8.113,16.247,8.113h358.265c11.222,0,20.317-9.095,20.317-20.317V111.542    c0.447-1.666,0.677-3.413,0.677-5.215C511.999,95.106,502.904,86.01,491.682,86.01z M470.687,385.354H142.892L45.754,256.033    l97.774-129.388h327.159V385.354z" data-original="#000000" class="active-path" data-old_color="#000000" fill="#474747"/>
	</g>
</g><g>
	<g>
		<path d="M379.455,192.237c-7.91-7.964-20.771-7.998-28.736-0.095l-99.556,98.878c-7.958,7.91-7.998,20.771-0.095,28.736    c3.969,3.996,9.19,6,14.412,6c5.181,0,10.355-1.964,14.317-5.899l99.556-98.885C387.318,213.062,387.358,200.201,379.455,192.237z    " data-original="#000000" class="active-path" data-old_color="#000000" fill="#474747"/>
	</g>
</g><g>
	<g>
		<path d="M379.36,291.02l-99.556-98.878c-7.958-7.91-20.825-7.87-28.736,0.095c-7.91,7.964-7.863,20.832,0.095,28.736    l99.556,98.885c3.962,3.935,9.136,5.899,14.317,5.899c5.228,0,10.443-2.005,14.425-6    C387.365,311.791,387.324,298.93,379.36,291.02z" data-original="#000000" class="active-path" data-old_color="#000000" fill="#474747"/>
	</g>
</g></g> </svg>
